<svg width="1523" height="59" viewBox="0 0 1523 59" fill="none" xmlns="http://www.w3.org/2000/svg">
<path d="M1448.49 11.5768C1450.31 11.2988 1452.85 12.9522 1454.99 13.0637C1463.95 13.5478 1467.26 14.7128 1475.37 15.4492C1487.4 16.5429 1523.14 14.8448 1523 26.1151C1523 26.1154 1523 26.1157 1523 26.116C1523 26.2265 1522.99 26.3382 1522.99 26.4512C1522.83 28.5968 1519.77 30.9039 1519.29 33.3266C1518.81 35.7503 1518.95 51.4367 1514.63 52.2659C1508.36 53.3516 1493.4 49.1482 1490.06 49.2859C1487.78 49.3809 1484.96 50.7724 1482.04 50.9901C1472.62 51.6917 1467.71 50.5893 1459.19 54.359C1455.83 52.277 1452.47 50.195 1449.1 48.113C1444.67 49.0055 1438 46.2326 1435.31 46.3482C1433.11 46.4433 1431.79 48.0414 1429.5 48.0885C1426.92 48.1504 1422.98 46.3604 1418.29 46.5658C1410.61 46.8945 1409.19 51.0878 1404.57 51.5664C1399.79 52.0615 1392.38 49.6831 1386.26 51.0904C1385.49 51.5442 1384.72 51.998 1383.95 52.4518C1384.49 53.5059 1385.02 54.5599 1385.56 55.6139C1382.48 56.0641 1381.18 53.9016 1378.36 53.8284C1375.04 53.7412 1373.32 55.7555 1371.09 55.719C1369.26 55.6873 1366.79 54.0254 1364.42 54.0987C1360.96 54.1974 1361.68 56.5626 1359.82 56.9807C1359.07 57.1429 1345.32 58.2761 1344.54 58.2854C1338.65 58.3067 1338.17 55.0756 1333.48 54.7365C1320.45 53.809 1307.03 56.2521 1294.96 57.0903C1289.57 57.4654 1283.96 57.2097 1278.59 56.6287C1287.15 48.4783 1268.51 41.8276 1275.36 54.8272C1269.41 52.9173 1265.13 56.3521 1259.47 55.6938C1255.81 55.2648 1253.3 53.4433 1248.07 53.4266C1238.79 53.4084 1228.57 58.3751 1226.02 49.1426C1215.1 50.632 1205.71 47.1801 1201.68 55.2541C1198.87 55.7161 1191.73 50.7909 1188.59 50.0955C1185.61 49.4402 1162.78 46.978 1159.04 46.8106C1155.3 46.6432 1148.75 46.431 1145.59 47.1053C1141.63 47.9388 1138.76 56.328 1131.83 46.3944C1123.63 47.0917 1120.71 46.7744 1113.11 45.5377C1111.73 45.314 1111.59 43.85 1110.79 43.8389C1109.13 43.8188 1106.29 44.8649 1103.32 44.9607C1098.45 45.1171 1095.7 42.007 1096.19 46.7125C1092.97 47.4612 1089.75 48.21 1086.52 48.9587C1085.41 48.0381 1084.29 47.1175 1083.18 46.1969C1081.45 47.1644 1079.72 48.1318 1077.99 49.0993C1080.09 42.3242 1067.95 46.1898 1071.83 50.1391C1065.62 48.6568 1059.4 47.1744 1053.19 45.692C1054.16 37.9746 1039.53 44.634 1040.7 48.8507C1039.99 48.8359 1039.28 48.8212 1038.56 48.8064C1032.35 46.6766 1026.6 48.2869 1019.01 46.8158C1011.43 45.3447 1012.15 44.6009 1009.88 41.0182C1008.09 41.2 1006.3 41.3818 1004.5 41.5637C994.995 51.1943 996.86 34.3427 980.691 41.6224C975.628 35.4354 962.926 38.4985 954.507 40.2535C953.528 40.4574 953.496 41.646 952.191 41.9967C948.999 42.8396 940.9 41.2127 941.131 45.0506C938.334 43.907 935.538 42.7634 932.741 41.6198C930.436 42.2891 928.131 42.9584 925.825 43.6277C925.822 44.8249 925.819 46.022 925.817 47.2191C921.241 43.0833 913.955 44.5628 910.382 43.5438C909.671 43.3375 909.537 41.6844 907.325 41.207C904.739 40.6409 899.904 41.0708 896.822 40.5174C895.599 42.3319 894.376 44.1464 893.153 45.9609C887.618 46.8858 885.735 42.0344 882.497 41.6199C881.913 41.5476 871.256 41.7649 870.68 41.8611C865.971 42.6209 867.253 46.7501 853.673 45.7039C851.254 45.5151 849.314 44.0682 847.127 43.9844C843.264 43.8342 831.581 46.9204 830.629 49.8918C825.987 46.102 813.428 47.4754 809.748 46.3519C808.637 46.0067 808.414 43.626 804.994 43.0783C802.221 42.6318 795.043 44.4487 791.524 44.0873C787.788 43.6948 786.477 41.6812 784.803 41.5196C783.222 41.3691 781.743 42.9638 779.586 42.9282C772.852 42.7901 766.785 40.1207 761.463 40.0082C753.766 39.8396 746.908 44.5309 740.442 46.5723C738.847 46.2433 737.289 45.1996 735.612 45.1698C714.881 44.7677 691.502 43.6038 670.719 42.3288C661.07 41.7419 637.142 34.97 643.418 45.8602C640.04 47.713 615.699 43.0572 611.059 42.9351C606.421 42.8137 602.72 44.7078 599.074 44.6921C588.069 44.6427 580.338 43.1515 566.924 44.6769C563.459 45.0763 559.725 47.3281 557.676 47.2765C555.21 47.209 552.581 44.9552 549.386 44.7753C541.77 44.3638 527.561 44.9219 520.255 44.4487C518.922 44.3574 518.477 42.4012 516.575 41.7683C509.17 39.2959 500.835 39.4012 502.234 45.6467C492.748 41.9953 483.895 45.1132 475.063 45.2034C456.387 45.3798 422.395 43.5128 406.099 45.9318C395.823 47.458 396.052 50.2542 380.982 47.6605C377.636 47.0852 374.308 46.3237 370.251 45.6366C360.74 44.0201 352.061 38.754 344.722 44.8835C334.158 43.1422 325.716 44.1834 317.928 38.7705C316.987 40.0346 316.046 41.2987 315.104 42.5628C313.806 42.5786 312.508 42.5944 311.211 42.6101C310.821 41.3889 310.431 40.1676 310.041 38.9464C300.75 38.5059 288.896 43.3618 281.028 43.2297C267.837 43.0131 233.884 40.6579 221.395 38.8645C214.764 37.9122 214.375 40.5129 210.638 35.1117C209.148 35.4662 207.658 35.8207 206.168 36.1751C205.225 37.3364 204.281 38.4977 203.337 39.6589C194.816 39.6023 184.733 37.6581 176.616 37.5781C161.825 37.4358 139.576 40.393 124.75 38.0929C121.032 37.5131 116.406 35.0385 112.759 35.0214C107.451 34.9944 106.112 38.9915 99.3752 38.9847C87.7649 38.9655 66.2021 34.041 55.2252 34.2641C51.965 34.3277 50.4262 35.8023 48.174 35.9344C38.7296 36.5044 30.9841 36.2886 21.9079 38.4859C12.2395 34.5224 13.139 29.5691 10.1891 24.5241C7.95321 20.7163 1.06307 11.8711 0.110055 8.54835C-0.559329 6.21397 2.08193 3.25363 1.13538 0.681515C12.8 -1.22157 17.6627 1.08867 27.0705 4.80509C44.5267 4.87373 61.983 4.94237 79.4393 5.01102C81.0104 6.42783 82.5814 7.84463 84.1523 9.26144C84.1523 9.26449 84.1523 9.26755 84.1522 9.2706C90.8358 10.9649 93.7205 7.4004 97.3456 6.6274C132.05 -0.774045 200.094 6.17609 238.185 7.52084C246.393 7.80815 273.124 6.24965 278.73 8.58782C280.181 9.19666 280.561 11.3565 282.112 11.4691C295.991 10.3562 309.871 9.24324 323.751 8.13029C352.22 11.8251 381.728 9.41811 410.461 9.25144C488.201 8.7987 565.168 8.03538 641.612 9.48047C656.385 9.76323 675.154 8.37664 689.606 9.59353C695.638 10.0985 698.111 13.5896 706.073 11.1069C706.144 12.0403 706.217 12.9736 706.288 13.907C713.223 12.8655 717.671 10.7978 725.433 10.6765C731.969 10.5777 749.258 10.6494 755.028 11.0759C758.02 11.2905 756.884 13.0191 759.676 13.0442C764.456 13.0741 774.699 10.7898 781.294 10.8699C787.27 10.9425 797.318 13.0718 801.916 12.8369C818.472 12.0062 836.529 9.25051 854.15 10.262C859.017 10.5468 865.254 12.8818 866.78 12.8374C869.761 12.7423 870.675 10.5588 872.679 10.301C882.862 8.99898 898.675 11.7992 908.638 12.0238C941.101 12.7561 975.508 12.2164 1007.83 13.0126C1028.25 13.5141 1062.2 13.5405 1081.03 15.4203C1085.1 15.8261 1083.98 18.2169 1087.4 18.2584C1091.18 18.3039 1093.25 16.7048 1095.02 16.5951C1107.28 15.8247 1134.33 14.5117 1145.88 16.3122C1148.07 16.6577 1149.65 18.5608 1150.97 18.57C1151.63 18.5781 1153.16 17.3109 1155.25 17.205C1173.77 16.2669 1187.25 17.1805 1205.37 17.8416C1240.08 19.0983 1280.33 17.1958 1316.79 18.9333C1324.73 19.3112 1330.13 23.1032 1331.25 23.0793C1333.7 23.034 1335.3 20.5471 1340.28 19.9884C1356.82 18.1545 1379.02 21.0989 1394.74 20.0335C1402.51 19.5089 1413.21 16.4574 1420.85 15.8463C1426.96 15.3577 1441.35 16.7806 1444.07 15.4169C1445.72 14.593 1446.51 11.8921 1448.49 11.5768ZM1242.52 51.2672C1243.66 46.9473 1232.2 50.4096 1236.46 52.7877C1237.41 53.3231 1242.23 52.3886 1242.52 51.2672ZM707.957 37.2445C708.047 38.4835 708.136 39.7224 708.226 40.9614C709.731 40.4646 711.236 39.9678 712.741 39.471C711.908 38.7167 711.074 37.9624 710.241 37.2081C709.48 37.2202 708.719 37.2324 707.957 37.2445Z" fill="#41FFA7"/>
</svg>
